<?xml version="1.0" standalone="no"?>
<!DOCTYPE svg PUBLIC "-//W3C//DTD SVG 20010904//EN"
 "http://www.w3.org/TR/2001/REC-SVG-20010904/DTD/svg10.dtd">
<svg version="1.0" xmlns="http://www.w3.org/2000/svg"
 width="225.000000pt" height="225.000000pt" viewBox="0 0 225.000000 225.000000"
 preserveAspectRatio="xMidYMid meet">

<g transform="translate(0.000000,225.000000) scale(0.100000,-0.100000)"
fill="#000000" stroke="none">
<path d="M0 1125 l0 -1125 1125 0 1125 0 0 1125 0 1125 -1125 0 -1125 0 0
-1125z m1290 690 l54 -55 -18 -36 -17 -37 -60 59 c-32 32 -59 62 -59 67 0 10
33 56 40 57 3 0 30 -25 60 -55z m-83 -137 l62 -61 -61 -116 c-34 -64 -69 -128
-78 -143 l-16 -27 -83 77 -83 77 92 128 c51 70 95 127 98 127 4 0 34 -28 69
-62z m-84 -465 c665 -644 667 -645 667 -658 0 -20 -47 -58 -55 -45 -5 8 -16 3
-35 -15 -27 -26 -29 -26 -54 -10 -32 21 -33 32 -1 65 l25 26 -28 27 -28 27
-24 -25 -24 -25 -28 27 -28 27 22 23 22 24 -28 27 -27 27 -27 -30 c-24 -25
-36 -30 -80 -31 l-51 -2 -363 350 c-200 192 -396 382 -436 422 l-74 73 99 61
c54 34 102 62 106 62 4 0 207 -192 450 -427z m-344 -107 c273 -263 496 -482
496 -486 0 -4 -21 -35 -48 -69 -84 -109 -116 -107 -216 13 -80 95 -119 119
-190 114 l-49 -3 -250 242 -250 243 5 62 c4 46 -2 93 -21 175 -25 107 -33 202
-19 216 9 9 -19 35 542 -507z m959 278 c5 -2 -31 -74 -38 -74 -3 0 -32 27 -64
59 l-58 59 23 31 23 31 55 -52 c31 -29 57 -54 59 -54z m-148 -290 c-40 -77
-75 -141 -77 -144 -2 -2 -40 32 -85 77 l-81 81 50 69 c27 37 69 94 93 127 l42
58 65 -65 66 -65 -73 -138z m493 -45 l57 -50 -21 -41 -21 -41 -59 59 c-32 32
-59 62 -59 67 0 10 33 56 41 57 3 0 31 -23 62 -51z m-1597 -205 l234 -226 -23
-29 c-12 -15 -25 -27 -29 -26 -18 5 -410 393 -424 419 -14 27 -12 88 3 88 3 0
111 -102 239 -226z m1513 66 l64 -58 -47 -86 c-31 -57 -53 -86 -65 -86 -9 0
-37 -13 -61 -29 l-45 -29 -51 50 -52 50 90 124 c50 68 93 124 97 124 3 -1 35
-27 70 -60z m-1661 -338 c15 -16 51 -56 79 -89 37 -43 66 -66 98 -79 74 -28
107 -12 211 101 120 131 127 130 261 -32 29 -35 57 -57 88 -69 67 -25 113 -9
179 64 114 124 122 132 154 132 25 0 40 -11 79 -57 84 -99 121 -132 165 -143
66 -18 116 6 189 93 79 93 96 107 128 107 31 0 100 -41 160 -95 40 -37 41 -38
41 -106 l0 -69 -65 34 c-92 49 -140 55 -207 22 -29 -14 -81 -48 -116 -76 -90
-71 -105 -69 -242 39 -97 77 -165 77 -269 -2 -91 -69 -122 -87 -151 -87 -15 0
-61 27 -117 69 -54 41 -106 71 -127 75 -52 10 -108 -9 -166 -55 -137 -108
-152 -110 -242 -39 -35 28 -87 62 -116 76 -66 32 -115 27 -208 -21 l-64 -34 0
69 0 68 50 45 c55 50 123 87 158 87 13 0 36 -13 50 -28z m57 -306 c94 -71 141
-91 187 -82 17 3 71 35 121 71 92 66 142 85 180 67 12 -5 54 -35 92 -66 122
-98 161 -98 291 -1 85 64 133 83 173 70 12 -4 52 -31 89 -61 136 -110 160
-110 320 -1 45 31 94 60 108 63 30 8 86 -13 161 -58 l53 -32 0 -78 0 -78
-1045 0 -1045 0 0 78 0 78 53 32 c58 35 121 60 154 61 11 1 60 -28 108 -63z"/>
<path d="M687 1472 l-27 -28 28 -27 28 -27 22 23 c28 29 28 38 -1 65 l-23 22
-27 -28z"/>
<path d="M797 1362 l-27 -28 28 -27 28 -27 27 28 27 28 -28 27 -28 27 -27 -28z"/>
<path d="M912 1257 c-28 -29 -28 -38 1 -65 l23 -22 27 28 27 28 -28 27 -28 27
-22 -23z"/>
<path d="M1020 1145 l-24 -26 27 -27 27 -27 27 27 27 27 -24 26 c-13 14 -26
25 -30 25 -4 0 -17 -11 -30 -25z"/>
<path d="M1137 1032 l-27 -28 25 -24 c27 -26 47 -22 69 13 8 13 5 22 -15 42
l-25 25 -27 -28z"/>
<path d="M1246 922 l-26 -28 31 -23 31 -23 24 23 c31 29 30 33 -5 58 l-28 20
-27 -27z"/>
<path d="M1360 815 l-24 -26 27 -27 27 -27 27 27 27 27 -24 26 c-13 14 -26 25
-30 25 -4 0 -17 -11 -30 -25z"/>
</g>
</svg>
